# xmcd
#
# Track frame offsets: 
#        300
#        17919
#        36940
#        58703
#        79706
#        101320
#        117850
#        136762
#        153238
#        167371
#        208444
#        225742
#
# Disc length: 3366 seconds
#
# Revision: 0
# Processed by: cddbd v1.5.2PL0 Copyright (c) Steve Scherf et al.
# Submitted via: ExactAudioCopy v1.0b1
#
DISCID=950d220c
DTITLE=Albert Castiglia - Living the Dream
DYEAR=2012
DGENRE=General Blues
TTITLE0=Living the Dream
TTITLE1=The Man
TTITLE2=Freddies Boogie
TTITLE3=Directly from My Heart to You
TTITLE4=Sometimes You Win
TTITLE5=Public Enemy #9
TTITLE6=Lovin Cup
TTITLE7=Fat Cat
TTITLE8=I Want Her for Myself
TTITLE9=Walk the Backstreets
TTITLE10=Call Me When You Need Me
TTITLE11=Parchman Farm
EXTD=
EXTT0=
EXTT1=
EXTT2=
EXTT3=
EXTT4=
EXTT5=
EXTT6=
EXTT7=
EXTT8=
EXTT9=
EXTT10=
EXTT11=
PLAYORDER=
